{"title":"A Knights Tale(2001)MPEG-4[DaScubaDude]","uid":14320307,"size":1315638965,"categoryP":"video","categoryS":"movies","magnet":"?xt=urn:btih:bd9c02aef26b3de5ba7f92d43ff0865181dd8508&amp;dn=A+Knights+Tale%282001%29MPEG-4%5BDaScubaDude%5D&amp;tr=udp%3A%2F%2Ftracker.leechers-paradise.org%3A6969&amp;tr=udp%3A%2F%2Fzer0day.ch%3A1337&amp;tr=udp%3A%2F%2Fopen.demonii.com%3A1337&amp;tr=udp%3A%2F%2Ftracker.coppersurfer.tk%3A6969&amp;tr=udp%3A%2F%2Fexodus.desync.com%3A6969","seeders":0,"leechers":0,"uploader":"dascuba","files":1,"time":1460600024,"description":"A Knight's Tale (2001)\r\nPG-13 | 2h 12min | Action, Adventure, Romance | 11 May 2001 (USA)\r\nAfter his master dies, a peasant squire, fueled by his desire for food and glory, creates a new identity for himself as a knight.\r\nDirector: Brian Helgeland\r\nWriter: Brian Helgeland\r\nStars: Heath Ledger, Mark Addy, Rufus Sewell\r\n\r\nGeneral\r\nComplete name                            : Knights TaleDVD_VIDEO_Title1.mp4\r\nFormat                                   : MPEG-4\r\nFormat profile                           : Base Media\r\nCodec ID                                 : isom\r\nFile size                                : 1.23 GiB\r\nDuration                                 : 2h 12mn\r\nOverall bit rate                         : 1 329 Kbps\r\nMovie name                               : DVD_VIDEO\r\nGenre                                    : Action\r\nWriting application                      : Lavf54.6.100\r\n\r\nVideo\r\nID                                       : 1\r\nFormat                                   : AVC\r\nFormat/Info                              : Advanced Video Codec\r\nFormat profile                           :   \r\nFormat settings, CABAC                   : No\r\nFormat settings, ReFrames                : 6 frames\r\nCodec ID                                 : avc1\r\nCodec ID/Info                            : Advanced Video Coding\r\nDuration                                 : 2h 12mn\r\nSource duration                          : 2h 12mn\r\nBit rate                                 : 1 194 Kbps\r\nWidth                                    : 720 pixels\r\nHeight                                   : 404 pixels\r\nDisplay aspect ratio                     : 16:9\r\nFrame rate mode                          : Constant\r\nFrame rate                               : 29.970 fps\r\nColor space                              : YUV\r\nChroma subsampling                       : 4:2:0\r\nBit depth                                : 8 bits\r\nScan type                                : Progressive\r\nBits/(Pixel*Frame)                       : 0.137\r\nStream size                              : 1.10 GiB (90%)\r\nSource stream size                       : 1.10 GiB (90%)\r\n\r\nAudio\r\nID                                       : 2\r\nFormat                                   : AAC\r\nFormat/Info                              : Advanced Audio Codec\r\nFormat profile                           : LC\r\nCodec ID                                 : 40\r\nDuration                                 : 2h 12mn\r\nBit rate mode                            : Constant\r\nBit rate                                 : 128 Kbps\r\nChannel(s)                               : 2 channels\r\nChannel positions                        : Front: L R\r\nSampling rate                            : 44.1 KHz\r\nCompression mode                         : Lossy\r\nStream size                              : 121 MiB (10%)","torrent":{"xt":"urn:btih:bd9c02aef26b3de5ba7f92d43ff0865181dd8508","amp;dn":"A+Knights+Tale%282001%29MPEG-4%5BDaScubaDude%5D","amp;tr":["udp%3A%2F%2Ftracker.leechers-paradise.org%3A6969","udp%3A%2F%2Fzer0day.ch%3A1337","udp%3A%2F%2Fopen.demonii.com%3A1337","udp%3A%2F%2Ftracker.coppersurfer.tk%3A6969","udp%3A%2F%2Fexodus.desync.com%3A6969"],"infoHash":"bd9c02aef26b3de5ba7f92d43ff0865181dd8508","infoHashBuffer":{"type":"Buffer","data":[189,156,2,174,242,107,61,229,186,127,146,212,63,240,134,81,129,221,133,8]},"announce":[],"urlList":[]}}